<svg xmlns="http://www.w3.org/2000/svg" width="250" height="32" viewBox="0 0 250 32">
  <g fill="none" fill-rule="evenodd">
    <path fill="#556480" d="M10.3096677,25.4720544 C3.27794562,25.4720544 0.0849697885,20.1623867 0.0849697885,12.8077795 C0.0849697885,5.05853474 3.49320242,0 10.5608006,0 C15.5834592,0 19.2428248,3.01359517 19.56571,7.82099698 L14.9018127,7.82099698 C14.6506798,5.23791541 13.0003776,3.94637462 10.2379154,3.94637462 C7.26019637,3.94637462 5.1076284,5.91956193 5.1076284,8.96903323 L5.1076284,16.4312689 C5.1076284,19.3731118 7.43957704,21.5256798 10.3814199,21.5256798 C13.2873867,21.5256798 14.8300604,20.3417674 15.2964502,17.4716767 L19.9603474,17.4716767 C19.2069486,23.0683535 15.4040785,25.4720544 10.3096677,25.4720544 Z M27.8058912,24.9339124 L23.3213746,24.9339124 L23.3213746,6.63708459 L27.8058912,6.63708459 L27.8058912,24.9339124 Z M27.8776435,0.538141994 L27.8776435,4.52039275 L23.2496224,4.52039275 L23.2496224,0.538141994 L27.8776435,0.538141994 Z M39.7167674,10.1170695 L39.7167674,21.4539275 L44.2730363,21.4539275 L44.2730363,24.9339124 L35.2322508,24.9339124 L35.2322508,10.1170695 L31.6087613,10.1170695 L31.6087613,6.63708459 L35.2322508,6.63708459 L35.2322508,0.538141994 L39.7167674,0.538141994 L39.7167674,6.63708459 L44.2730363,6.63708459 L44.2730363,10.1170695 L39.7167674,10.1170695 Z M55.6552115,19.695997 L55.798716,19.695997 L59.8885952,6.63708459 L64.6242447,6.63708459 L55.798716,31.032855 L47.977719,31.032855 L47.977719,27.5528701 L52.569864,27.5528701 L53.4667674,24.9339124 L46.8655589,6.63708459 L51.6729607,6.63708459 L55.6552115,19.695997 Z M72.4358006,0.538141994 L72.4358006,9.29191843 C73.5479607,7.35460725 75.2700151,6.206571 77.8530967,6.206571 C81.9429758,6.206571 83.8444109,8.75377644 83.8444109,12.951284 L83.8444109,24.9339124 L79.3598943,24.9339124 L79.3598943,13.2741692 C79.3598943,11.1216012 78.5347432,9.86593656 76.3821752,9.86593656 C73.9067221,9.86593656 72.4358006,11.6956193 72.4358006,14.3504532 L72.4358006,24.9339124 L67.951284,24.9339124 L67.951284,0.538141994 L72.4358006,0.538141994 Z M94.3353474,21.8844411 C96.6314199,21.8844411 98.0305891,20.0188822 98.0305891,17.7228097 L98.0305891,17.005287 L92.6491692,17.4716767 C91.9316465,17.543429 91.6446375,17.9380665 91.6446375,18.6555891 L91.6446375,20.234139 C91.6446375,21.310423 92.7567976,21.8844411 94.3353474,21.8844411 Z M98.7858761,13.5970544 L98.7858761,12.413142 C98.7858761,10.5117069 97.673716,9.68655589 95.9157855,9.68655589 C94.1219789,9.68655589 92.8304381,10.5834592 92.8304381,12.2696375 L88.3459215,12.2696375 C88.489426,8.28738671 91.7182779,6.206571 96.0951662,6.206571 C100.472054,6.206571 103.19864,8.39501511 103.19864,12.4848943 L103.19864,21.4539275 L106.283988,21.4539275 L106.283988,24.9339124 L99.2163897,24.9339124 L99.1805136,22.0996979 L99.0370091,22.0996979 C97.9966012,24.1087613 96.310423,25.364426 93.5120846,25.364426 C90.2114804,25.364426 87.7360272,23.0324773 87.7360272,19.7318731 C87.7360272,16.7900302 89.8885952,14.3504532 93.7273414,14.027568 L98.7858761,13.5970544 Z M108.472432,15.8931269 C108.472432,9.86593656 111.665408,6.206571 116.688066,6.206571 C120.490937,6.206571 123.970921,8.17975831 124.329683,12.8077795 L119.845166,12.8077795 C119.594033,10.4758308 118.302492,9.68655589 116.508686,9.68655589 C114.714879,9.68655589 113.136329,10.8345921 113.136329,13.2741692 L113.136329,18.2968278 C113.136329,20.521148 114.535498,21.8844411 116.544562,21.8844411 C118.553625,21.8844411 119.701662,21.05929 119.988671,18.619713 L124.473187,18.619713 C124.042674,23.1759819 120.777946,25.364426 116.759819,25.364426 C111.306647,25.364426 108.472432,21.4898036 108.472432,15.8931269 Z M139.718656,24.9339124 L132.686934,14.8885952 L138.821752,6.63708459 L144.13142,6.63708459 L137.601964,14.8885952 L144.705438,24.9339124 L139.718656,24.9339124 Z M132.615181,0.538141994 L132.615181,24.9339124 L128.130665,24.9339124 L128.130665,0.538141994 L132.615181,0.538141994 Z M153.423338,13.5253021 L157.046828,14.314577 C159.773414,14.9244713 161.890106,16.4312689 161.890106,19.6601208 C161.890106,22.8530967 159.16352,25.364426 154.284366,25.364426 C149.441088,25.364426 146.678625,23.1042296 146.499245,19.1219789 L150.983761,19.1219789 C151.163142,20.9157855 152.311178,21.8844411 154.284366,21.8844411 C156.00642,21.8844411 157.405589,21.2386707 157.405589,19.8753776 C157.405589,18.5479607 156.293429,18.0456949 154.679003,17.7228097 L151.521903,17.0411631 C148.436556,16.3595166 146.929758,14.6733384 146.929758,11.8032477 C146.929758,8.68202417 149.548716,6.206571 154.033233,6.206571 C158.158988,6.206571 161.100831,8.21563444 161.280211,12.2696375 L156.795695,12.2696375 C156.723943,10.5475831 155.611782,9.68655589 154.033233,9.68655589 C152.490559,9.68655589 151.414275,10.4040785 151.414275,11.5879909 C151.414275,12.7719033 152.239426,13.2741692 153.423338,13.5253021 Z"/>
    <path fill="#8CC414" d="M172.601964,22.0279456 L172.601964,22.0996979 L184.763973,22.0996979 L184.763973,24.9339124 L168.36858,24.9339124 L168.36858,22.0996979 L178.126888,12.5207704 C180.064199,10.6193353 181.104607,9.32779456 181.104607,7.17522659 C181.104607,4.48451662 179.274924,2.87009063 176.655967,2.87009063 C173.785876,2.87009063 171.776813,4.48451662 171.776813,7.71336858 L168.476208,7.71336858 C168.476208,2.87009063 172.063822,0 176.727719,0 C181.391616,0 184.405211,2.8342145 184.405211,7.17522659 C184.405211,10.3682024 182.575529,12.5925227 180.602341,14.4580816 L172.601964,22.0279456 Z M206.720166,12.7360272 C206.720166,20.0547583 204.92636,25.4720544 198.074018,25.4720544 C191.221677,25.4720544 189.42787,20.0547583 189.42787,12.7360272 C189.42787,5.41729607 191.221677,0 198.074018,0 C204.92636,0 206.720166,5.41729607 206.720166,12.7360272 Z M198.074018,22.6019637 C201.015861,22.6019637 203.132553,20.7364048 203.132553,17.5075529 L203.132553,7.96450151 C203.132553,4.73564955 201.015861,2.87009063 198.074018,2.87009063 C195.132175,2.87009063 193.015483,4.73564955 193.015483,7.96450151 L193.015483,17.5075529 C193.015483,20.7364048 195.132175,22.6019637 198.074018,22.6019637 Z M212.639728,24.9339124 L212.639728,22.0996979 L218.918051,22.0996979 L218.918051,6.206571 L212.639728,6.206571 L212.639728,3.3723565 L218.918051,3.3723565 L218.918051,0.538141994 L222.146903,0.538141994 L222.146903,22.0996979 L227.887085,22.0996979 L227.887085,24.9339124 L212.639728,24.9339124 Z M241.125378,25.4720544 C236.2821,25.4720544 232.335725,23.2477341 232.335725,18.4044562 C232.335725,15.390861 234.021903,13.2382931 236.784366,12.2337613 C234.273036,11.1574773 233.053248,9.2560423 233.053248,6.60120846 C233.053248,2.47545317 236.640861,0 241.125378,0 C245.609894,0 249.197508,2.47545317 249.197508,6.60120846 C249.197508,9.2560423 247.977719,11.1574773 245.46639,12.2337613 C248.228852,13.2382931 249.91503,15.390861 249.91503,18.4044562 C249.91503,23.2477341 245.968656,25.4720544 241.125378,25.4720544 Z M245.681647,7.67749245 L245.681647,6.13481873 C245.681647,3.98225076 243.636707,2.87009063 241.125378,2.87009063 C238.614048,2.87009063 236.569109,3.98225076 236.569109,6.13481873 L236.569109,7.67749245 C236.569109,9.83006042 238.614048,10.9422205 241.125378,10.9422205 C243.636707,10.9422205 245.681647,9.83006042 245.681647,7.67749245 Z M235.923338,17.2564199 L235.923338,19.1219789 C235.923338,21.2745468 238.004154,22.6019637 241.125378,22.6019637 C244.246601,22.6019637 246.327417,21.2745468 246.327417,19.1219789 L246.327417,17.2564199 C246.327417,15.103852 244.246601,13.7405589 241.125378,13.7405589 C238.004154,13.7405589 235.923338,15.103852 235.923338,17.2564199 Z"/>
  </g>
</svg>
